<svg xmlns="http://www.w3.org/2000/svg" xmlns:svg="http://www.w3.org/2000/svg" id="Layer_1" width="200" height="100" x="0" y="0" version="1.1" viewBox="0 0 200 100" xml:space="preserve"><style id="style2" type="text/css">.st0{fill:url(#SVGID_1_)}.st1{fill:url(#SVGID_2_)}.st2{fill:url(#SVGID_3_)}.st3{fill:url(#SVGID_4_)}</style><linearGradient id="SVGID_3_" x1="963.49" x2="1102.155" y1="65.061" y2="53.725" gradientTransform="matrix(1,-0.00569704,0.00569704,1,1.0073,7.6557)" gradientUnits="userSpaceOnUse"><stop style="stop-color:#ff783c" id="stop44" offset="0"/><stop style="stop-color:#ffd2c8" id="stop46" offset="1"/></linearGradient><linearGradient id="SVGID_4_" x1="963.181" x2="1112.791" y1="-490.268" y2="-476.32" gradientTransform="matrix(1,0.00569704,0.00569704,-1,1.0073,-333.3985)" gradientUnits="userSpaceOnUse"><stop style="stop-color:#001e32" id="stop51" offset="0"/><stop style="stop-color:#0e2f44" id="stop53" offset=".078"/><stop style="stop-color:#2d536c" id="stop55" offset=".277"/><stop style="stop-color:#45718b" id="stop57" offset=".472"/><stop style="stop-color:#5685a2" id="stop59" offset=".661"/><stop style="stop-color:#6092af" id="stop61" offset=".84"/><stop style="stop-color:#6496b4" id="stop63" offset="1"/></linearGradient><g id="g96" transform="matrix(0.18497965,0,0,0.18497965,-4.9944493,29.060304)"><g id="g22"><path id="path4" d="m 80.8,59.7 c -30.7,0 -53.8,23 -53.8,53.5 0,30.6 23.1,53.7 53.8,53.7 18.4,0 33.2,-7.6 42.9,-21.9 l -14.9,-10.3 c -5,7.2 -12.7,15.2 -28,15.2 -19.6,0 -33.9,-15.5 -33.9,-36.7 0,-21.4 13.9,-36.4 33.9,-36.4 11.2,0 20.5,4.8 26.4,13.5 L 121.8,79.9 C 112.5,66.1 99.4,59.7 80.8,59.7 Z"/><path id="path6" d="m 189.2,59.5 c -30.9,0 -54.1,23.1 -54.1,53.7 0,30.6 23.3,53.7 54.1,53.7 30.9,0 54.2,-23.1 54.2,-53.7 0,-30.6 -23.3,-53.7 -54.2,-53.7 z m 0,90.4 c -19.8,0 -34.2,-15.5 -34.2,-36.7 0,-21.2 14.4,-36.7 34.2,-36.7 19.8,0 34.2,15.5 34.2,36.7 0,21.2 -14.4,36.7 -34.2,36.7 z"/><polygon id="polygon8" points="445.4 60.5 445.4 77.1 476 77.1 476 165.5 495.3 165.5 495.3 77.1 525.9 77.1 525.9 60.5"/><path id="path10" d="m 770.9,61 h -31.6 v 104.5 h 31.6 C 803.3,165.5 826,144 826,113.2 825.9,82.4 803.3,61 770.9,61 Z m -1.2,87.8 H 758.5 V 77.6 h 11.2 c 22.9,0 36.1,13 36.1,35.6 0.1,22.7 -13.1,35.6 -36.1,35.6 z"/><polygon id="polygon12" points="900.8 104.9 862.7 104.9 862.7 77.2 913.9 77.2 913.9 60.5 843.4 60.5 843.4 165.5 913.9 165.5 913.9 148.8 862.7 148.8 862.7 121.2 900.8 121.2"/><path id="path14" d="m 434.2,98.1 c 0,-24.2 -16.5,-37.6 -46.6,-37.6 h -28.3 v 105 h 19.3 v -29.8 h 9 c 30,0 46.6,-13.4 46.6,-37.6 z M 378.6,119 V 77.1 h 8.3 c 18.9,0 27.3,6.5 27.3,21 0,14.7 -8.2,21 -27.3,21 h -8.3 z"/><path id="path16" d="m 577.1,135.4 19.6,30.1 H 619 l -22.5,-33.9 c 14.8,-5.7 22.1,-17.3 22.1,-33.5 0,-24.2 -16.5,-37.6 -46.6,-37.6 h -28.3 v 105 H 563 v -29.8 c 0,0 10.8,0.1 14.1,-0.3 z M 563,119 V 77.1 h 8.3 c 18.9,0 27.3,6.5 27.3,21 0,14.7 -8.2,21 -27.3,21 H 563 Z"/><path id="path18" d="m 294.6,135.4 19.6,30.1 h 22.2 L 313.9,131.6 C 328.7,125.9 336,114.3 336,98.1 336,73.9 319.5,60.5 289.4,60.5 h -28.3 v 105 h 19.3 v -29.8 c 0.1,0 10.8,0.1 14.2,-0.3 z M 280.5,119 V 77.1 h 8.3 c 18.9,0 27.3,6.5 27.3,21 0,14.7 -8.2,21 -27.3,21 h -8.3 z"/><path id="path20" d="m 705,165.5 h 19.4 L 683.9,60 h -5.3 -5.3 l -40.5,105.5 h 19.4 l 6.5,-18.1 h 39.9 z m -40.7,-33.9 14.2,-39.5 14.2,39.5 z"/></g><g id="g42"><linearGradient id="SVGID_1_" x1="1026.866" x2="1108.181" y1="113.221" y2="113.221" gradientUnits="userSpaceOnUse"><stop style="stop-color:#001e32" id="stop24" offset="0"/><stop style="stop-color:#6496b4" id="stop26" offset=".876"/></linearGradient><path id="path29" d="m 1093,103 c -20.1,-10.8 -43.9,-13.5 -66.1,-7.1 5.6,3.7 9.3,10.1 9.3,17.3 0,7.2 -3.7,13.6 -9.3,17.4 22.2,6.4 46,3.7 66.1,-7.1 l 15.2,-10.2 z" class="st0" style="fill:url(#SVGID_1_)"/><linearGradient id="SVGID_2_" x1="994.637" x2="994.637" y1="113.208" y2="113.208" gradientUnits="userSpaceOnUse"><stop style="stop-color:#001e32" id="stop31" offset="0"/><stop style="stop-color:#113248" id="stop33" offset=".18"/><stop style="stop-color:#3b657f" id="stop35" offset=".552"/><stop style="stop-color:#6496b4" id="stop37" offset=".876"/></linearGradient><polygon id="polygon40" class="st1" style="fill:url(#SVGID_2_)"/></g><path id="path49" d="M 1093,103 967.7,18.4 c -11.1,33.6 -0.9,71.4 26.9,94.8 2.4,-2 4.8,-3.9 7.5,-5.7 28,-18.9 63,-19.5 90.9,-4.5 z" class="st2" style="fill:url(#SVGID_3_)"/><path id="path66" d="m 1002.1,118.9 c -2.6,-1.8 -5.1,-3.7 -7.5,-5.7 -27.8,23.4 -38,61.2 -26.9,94.8 L 1093,123.4 c -27.9,15 -62.9,14.4 -90.9,-4.5 z" class="st3" style="fill:url(#SVGID_4_)"/></g></svg>